<?xml version="1.0" encoding="utf-8"?>
<!-- Generator: Adobe Illustrator 16.0.1, SVG Export Plug-In . SVG Version: 6.00 Build 0)  -->
<!DOCTYPE svg PUBLIC "-//W3C//DTD SVG 1.1//EN" "http://www.w3.org/Graphics/SVG/1.1/DTD/svg11.dtd">
<svg version="1.1" id="Ebene_1" xmlns="http://www.w3.org/2000/svg" xmlns:xlink="http://www.w3.org/1999/xlink" x="0px" y="0px"
	 width="554px" height="287px" viewBox="0 0 554 287" enable-background="new 0 0 554 287" xml:space="preserve">
<g>
	<g>
		<g>
			<polygon fill="#D4E2F6" points="403.49,210.441 331.699,149.65 337.355,143.994 409.146,204.784 			"/>
			<g>
				<path fill="#FFFFFF" d="M406.354,218.577c-2.938,0-5.7-1.146-7.777-3.222c-4.288-4.289-4.288-11.269,0.001-15.558
					c2.077-2.077,4.839-3.221,7.776-3.221c2.938,0,5.699,1.144,7.777,3.221c4.289,4.289,4.289,11.269,0.001,15.558
					C412.054,217.434,409.292,218.577,406.354,218.577z"/>
				<g>
					<path fill="#5A95E5" d="M406.354,200.577c1.791,0,3.582,0.683,4.949,2.05c2.734,2.734,2.732,7.167,0,9.9
						c-1.365,1.365-3.158,2.05-4.949,2.05s-3.582-0.683-4.948-2.05c-2.734-2.734-2.734-7.166,0-9.9
						C402.771,201.261,404.562,200.577,406.354,200.577 M406.354,192.577L406.354,192.577c-4.007,0-7.772,1.562-10.604,4.393
						c-5.85,5.849-5.85,15.365,0,21.214c2.831,2.834,6.598,4.394,10.604,4.394c4.008,0,7.773-1.562,10.605-4.394
						c5.849-5.85,5.849-15.365,0-21.214C414.125,194.137,410.359,192.577,406.354,192.577L406.354,192.577z"/>
				</g>
			</g>
			<polygon fill="#D4E2F6" points="403.49,77.21 331.699,138.001 337.355,143.657 409.146,82.867 			"/>
			<g>
				<path fill="#FFFFFF" d="M406.354,91.074c-2.938,0-5.699-1.145-7.776-3.221c-4.289-4.29-4.289-11.268,0-15.558
					c2.076-2.077,4.838-3.221,7.776-3.221s5.7,1.144,7.777,3.221c4.289,4.291,4.289,11.269,0,15.558
					C412.053,89.93,409.291,91.074,406.354,91.074L406.354,91.074z"/>
				<g>
					<path fill="#5A95E5" d="M406.354,73.074c1.791,0,3.584,0.684,4.949,2.05c2.732,2.733,2.734,7.166,0,9.9
						c-1.367,1.367-3.158,2.05-4.949,2.05s-3.582-0.684-4.948-2.05c-2.734-2.734-2.734-7.166,0-9.9
						C402.771,73.757,404.562,73.074,406.354,73.074 M406.354,65.074c-4.008,0-7.773,1.561-10.606,4.394
						c-5.848,5.848-5.848,15.364,0.002,21.213c2.832,2.833,6.599,4.393,10.604,4.393c4.007,0,7.771-1.56,10.605-4.392
						c5.849-5.849,5.849-15.365,0.002-21.214C414.127,66.635,410.36,65.074,406.354,65.074L406.354,65.074z"/>
				</g>
			</g>
		</g>
		<g>
			<rect x="92" y="139" fill="#D4E2F6" width="92" height="8"/>
			<g>
				<path fill="#FFFFFF" d="M92.656,154.268c-3.766,0-11-4.646-11-11c0-6.065,4.935-11,11-11c6.065,0,11,4.935,11,11
					S98.722,154.268,92.656,154.268z"/>
				<g>
					<path fill="#5A95E5" d="M92.656,136.267c3.865,0,7,3.135,7,7c0,3.865-3.135,7-7,7c-1.793,0-7-3.134-7-7
						C85.656,139.401,88.789,136.267,92.656,136.267 M92.656,128.267c-8.271,0-15,6.729-15,15c0,8.559,9.1,15,15,15
						c8.271,0,15-6.729,15-15S100.928,128.267,92.656,128.267L92.656,128.267z"/>
				</g>
			</g>
		</g>
		<g>
			<g>
				<path fill="#FFFFFF" d="M260.94,217.268c-40.807,0-74.006-33.199-74.006-74.004c0-40.802,33.199-73.996,74.006-73.996
					s74.005,33.194,74.005,73.996C334.945,184.068,301.747,217.268,260.94,217.268z"/>
				<g>
					<path fill="#5A95E5" d="M260.94,73.267c38.654,0,70.005,31.34,70.005,69.996c0,38.667-31.352,70.004-70.005,70.004
						c-38.666,0-70.006-31.338-70.006-70.004C190.935,104.606,222.274,73.267,260.94,73.267 M260.94,65.267
						c-43.013,0-78.006,34.989-78.006,77.996c0,43.012,34.993,78.004,78.006,78.004c43.012,0,78.005-34.992,78.005-78.004
						C338.945,100.255,303.952,65.267,260.94,65.267L260.94,65.267z"/>
				</g>
			</g>
			<g>
				<g>
					<circle fill="#FFFFFF" cx="260.605" cy="143.601" r="35.001"/>
				</g>
				<g>
					<g>
						<path fill="#3B4655" d="M260.248,179.244c-19.299,0-35-15.699-35-34.998s15.701-35.002,35-35.002s35,15.703,35,35.002
							S279.547,179.244,260.248,179.244z M260.248,112.795c-17.342,0-31.451,14.109-31.451,31.451
							c0,17.34,14.109,31.451,31.451,31.451c17.342,0,31.449-14.111,31.449-31.451C291.697,126.904,277.59,112.795,260.248,112.795z
							"/>
					</g>
					<g>
						<g>
							<path opacity="0.7" fill="#3B4655" enable-background="new    " d="M260.227,124.043c1.65,0,3.615,0.242,5.455,0.588v-5.652
								c0-0.816-3.33-1.727-5.508-1.727c-2.18,0-5.393,0.91-5.393,1.727v5.666C256.598,124.289,258.557,124.043,260.227,124.043z"/>
						</g>
					</g>
					<g>
						<path fill="none" d="M261.307,147.377l0.328-6.004l-1.379-6.854l-1.504,6.854l0.279,5.99l1.1,8.893
							c0.064,0.016,0.129,0.031,0.191,0.043L261.307,147.377z"/>
						<path opacity="0.65" fill="#3B4655" enable-background="new    " d="M242.285,157.521c2.389,0.248,11.369,4.082,20.045-0.9
							l-2.137-0.271c-2.801-0.625-8.018-4.479-8.301-4.742c-0.023-0.075-8.479-8.643-18.379,0.386
							c0.326,1.157,0.727,2.282,1.193,3.375C237.047,154.414,239.756,157.26,242.285,157.521z"/>
						<path fill="#B93D8E" d="M234.758,155.494c0,0,0.002-0.002,0.004-0.002c-0.014-0.035-0.031-0.068-0.047-0.104
							C234.73,155.424,234.742,155.459,234.758,155.494z"/>
						<path fill="#3B4655" d="M271.869,135.246c0-0.74,0-5.908,0-5.908c0-0.816-7.037-2.693-11.643-2.693
							s-11.398,1.877-11.398,2.693c0,0,0,5.625,0,5.836c5.393-3.852,11.303-5.572,11.303-5.572
							C260.15,129.598,266.434,131.332,271.869,135.246z"/>
						<path fill="#3B4655" d="M274.707,146.891c-1.744,0.334-3.787,2.838-6.432,5.371c1.043-3.729,2.938-7.916,6.367-11.521
							c-0.922-0.84-1.865-1.602-2.801-2.293v-0.018c-3.445-2.543-7.434-4.727-11.568-5.926l-0.004,0.002
							c-1.709,0.445-3.393,1.244-4.979,2c-3.416,1.625-6.629,3.682-9.434,6.227c-0.002,0.002-0.004,0.006-0.006,0.008
							c3.057,3.096,4.875,6.989,5.965,10.627c0.023,0.082,0.053,0.164,0.076,0.239c0.283,0.265,0.576,0.527,0.871,0.777
							c2.148,1.828,4.578,3.334,7.377,3.959l-0.01-0.088l-1.1-8.893l-0.279-5.99l1.504-6.854l1.379,6.854l-0.328,6.004l-0.984,8.922
							l-0.008,0.078l2.016,0.244c-3.266,1.502-8.363,2.32-13.648-0.211c-2.133-1.02-4.197-1.99-6.586-2.24
							c-2.529-0.26-5.049,0.244-7.389,1.197c-0.002,0-0.002,0-0.002,0c0.004,0.006,0.008,0.014,0.01,0.021
							c0.016,0.034,0.033,0.067,0.047,0.104c4.521,10.289,15.1,16.998,26.34,16.656c11.023-0.336,21.047-7.439,25.061-17.705
							c0.219-0.56,0.418-1.121,0.6-1.693C282.969,149.959,277.01,146.451,274.707,146.891z"/>
						<path fill="#3B4655" d="M274.707,146.891C277.01,146.451,272.963,147.225,274.707,146.891L274.707,146.891z"/>
					</g>
				</g>
			</g>
		</g>
		<g>
			<g>
				<g>
					<g>
						<g>
							<path fill="#FFFFFF" d="M16.001,135.957c-6.254,0-11.342-5.087-11.342-11.34V87.264c0-6.254,5.088-11.342,11.342-11.342
								h37.354c6.252,0,11.338,5.088,11.338,11.342v37.354c0,6.253-5.086,11.34-11.338,11.34L16.001,135.957L16.001,135.957z"/>
						</g>
						<g>
							<path fill="#3B4655" d="M53.354,77.922c5.139,0,9.338,4.205,9.338,9.342v37.354c0,5.141-4.199,9.34-9.338,9.34H16.001
								c-5.137,0-9.342-4.199-9.342-9.34V87.264c0-5.137,4.205-9.342,9.342-9.342H53.354 M53.354,73.922H16.001
								c-7.356,0-13.342,5.985-13.342,13.342v37.354c0,7.355,5.985,13.34,13.342,13.34h37.354c7.354,0,13.338-5.984,13.338-13.34
								V87.264C66.692,79.907,60.709,73.922,53.354,73.922L53.354,73.922z"/>
						</g>
					</g>
					<path fill="#3B4655" d="M39.823,108.06c-1.162,0-2.105,1.303-2.105,2.912c0,1.61,0.943,2.914,2.105,2.914
						c1.16,0,2.105-1.304,2.105-2.914C41.929,109.362,40.983,108.06,39.823,108.06z M47.151,100.478
						c0.238-0.59,0.252-3.951-1.027-7.166c0,0-2.934,0.322-7.369,3.367c-0.932-0.259-2.504-0.387-4.08-0.387
						c-1.572,0-3.146,0.128-4.078,0.385c-4.438-3.043-7.369-3.365-7.369-3.365c-1.277,3.215-1.268,6.576-1.027,7.166
						c-1.502,1.631-2.42,3.588-2.42,6.267c0,11.634,9.652,11.819,12.088,11.819c0.553,0,1.648,0.002,2.807,0.004
						c1.16-0.002,2.258-0.004,2.807-0.004c2.438,0,12.088-0.186,12.088-11.819C49.569,104.065,48.653,102.108,47.151,100.478z
						 M34.722,117.135H34.63c-6.105,0-10.861-0.729-10.861-6.665c0-1.42,0.5-2.738,1.693-3.835c1.988-1.826,5.352-0.859,9.168-0.859
						c0.016,0,0.031,0,0.045-0.001c0.018,0.001,0.033,0.001,0.047,0.001c3.818,0,7.182-0.965,9.17,0.859
						c1.189,1.097,1.691,2.415,1.691,3.835C45.583,116.405,40.827,117.135,34.722,117.135z M29.528,108.06
						c-1.162,0-2.104,1.303-2.104,2.912c0,1.61,0.941,2.914,2.104,2.914c1.163,0,2.105-1.304,2.105-2.914
						C31.634,109.362,30.69,108.06,29.528,108.06z"/>
				</g>
				<g>
					<g>
						<g>
							<path fill="#FFFFFF" d="M16.001,211.168c-6.254,0-11.342-5.087-11.342-11.34v-37.354c0-6.255,5.088-11.343,11.342-11.343
								h37.355c6.252,0,11.338,5.088,11.338,11.343v37.354c0,6.253-5.086,11.34-11.338,11.34H16.001z"/>
						</g>
						<g>
							<path fill="#3B4655" d="M53.356,153.133c5.137,0,9.338,4.205,9.338,9.342v37.354c0,5.141-4.201,9.34-9.338,9.34H16.001
								c-5.137,0-9.342-4.199-9.342-9.34v-37.354c0-5.137,4.205-9.342,9.342-9.342H53.356 M53.356,149.133H16.001
								c-7.356,0-13.342,5.985-13.342,13.342v37.354c0,7.354,5.985,13.34,13.342,13.34h37.355c7.354,0,13.338-5.983,13.338-13.34
								v-37.354C66.694,155.118,60.711,149.133,53.356,149.133L53.356,149.133z"/>
						</g>
					</g>
					<g>
						<path fill="#3B4655" d="M43.212,186.695c-2.516,1.662-5.365,2.492-8.549,2.492c-3.182,0-6.027-0.83-8.531-2.492l-0.303,0.15
							l-0.1,0.271c0.357,2.2,0.678,3.841,0.959,4.918c0.225,0.394,0.516,0.737,0.875,1.036c0.359,0.298,0.77,0.541,1.23,0.732
							c0.461,0.19,0.891,0.342,1.289,0.454s0.855,0.214,1.371,0.304c1.158,0.19,2.289,0.295,3.395,0.312s2.24-0.105,3.402-0.371
							c1.162-0.264,2.227-0.665,3.191-1.204c0.404-0.225,0.73-0.542,0.977-0.95c0.248-0.41,0.408-0.804,0.48-1.181
							c0.072-0.376,0.152-0.847,0.236-1.415c0.084-0.566,0.172-0.996,0.262-1.288c0-0.103,0.043-0.309,0.135-0.623
							c0.088-0.313,0.117-0.565,0.084-0.758C43.582,186.891,43.446,186.764,43.212,186.695z"/>
						<path fill="#3B4655" d="M23.581,176.479c0.117,0.691,0.275,1.599,0.471,2.722c0.197,1.123,0.346,1.965,0.447,2.526
							c0.021,0.101,0.053,0.297,0.092,0.59c0.039,0.291,0.074,0.514,0.102,0.664c0.028,0.151,0.078,0.344,0.152,0.572
							c0.072,0.23,0.168,0.428,0.285,0.59c0.117,0.162,0.262,0.312,0.43,0.446c1.641,1.259,3.852,2.038,6.637,2.341
							c4.02,0.428,7.443-0.065,10.273-1.481c0.371-0.189,0.676-0.364,0.918-0.521c0.242-0.157,0.486-0.382,0.732-0.674
							c0.248-0.291,0.398-0.606,0.455-0.942c0.955-5.479,1.578-9.156,1.869-11.033c0.068-0.258,0.1-0.562,0.094-0.908
							c-0.006-0.348-0.1-0.635-0.277-0.859c-0.674-0.854-1.881-1.537-3.623-2.055c-3.334-0.977-7.129-1.258-11.385-0.842
							c-2.111,0.201-3.869,0.562-5.271,1.078c-0.338,0.123-0.607,0.227-0.809,0.312c-0.203,0.084-0.461,0.21-0.775,0.379
							c-0.314,0.168-0.566,0.337-0.758,0.505s-0.367,0.379-0.531,0.633c-0.162,0.252-0.26,0.524-0.295,0.816
							c0.102,0.809,0.225,1.695,0.371,2.66S23.464,175.79,23.581,176.479z M37.569,182.99c-0.686,0.854-1.539,1.324-2.561,1.414
							c-1.033,0.091-1.963-0.225-2.787-0.942c-0.826-0.719-1.262-1.589-1.307-2.61c-0.033-0.775,0.16-1.502,0.582-2.183
							c0.422-0.679,0.984-1.176,1.693-1.489c1.1-0.494,2.205-0.422,3.316,0.219c1.113,0.641,1.746,1.562,1.904,2.763
							C38.534,181.193,38.255,182.137,37.569,182.99z M27.749,170.309c0.359-0.191,0.668-0.314,0.928-0.371
							c0.258-0.057,0.627-0.123,1.111-0.201c3.086-0.551,6.266-0.562,9.533-0.035c0.549,0.091,0.947,0.16,1.195,0.211
							c0.246,0.051,0.572,0.175,0.977,0.371c0.404,0.197,0.719,0.445,0.943,0.75c-0.326,0.324-0.746,0.587-1.264,0.783
							c-0.516,0.195-0.924,0.315-1.221,0.36c-0.297,0.046-0.801,0.113-1.508,0.203c-2.471,0.313-4.986,0.31-7.545-0.019
							c-0.674-0.077-1.166-0.143-1.475-0.192s-0.721-0.174-1.238-0.37c-0.516-0.197-0.943-0.451-1.279-0.767
							C27.11,170.74,27.39,170.498,27.749,170.309z"/>
						<path fill="#3B4655" d="M36.079,179.378c-0.309-0.332-0.668-0.53-1.078-0.599s-0.816,0-1.221,0.201
							c-0.428,0.19-0.719,0.519-0.877,0.978c-0.156,0.461-0.154,0.922,0.01,1.382c0.162,0.46,0.463,0.786,0.9,0.979
							c0.596,0.357,1.221,0.324,1.879-0.103c0.656-0.427,0.939-0.993,0.85-1.7C36.542,180.088,36.388,179.709,36.079,179.378z"/>
					</g>
				</g>
			</g>
		</g>
		<g>
			<g>
				<path fill="#FFFFFF" d="M188.553,154.615c-2.938,0-5.701-1.145-7.778-3.221c-4.29-4.289-4.29-11.269-0.001-15.558
					c1.778-1.779,4.312-2.72,7.324-2.72c2.655,0,6.365,0.852,8.233,2.722c4.287,4.288,4.287,11.267,0,15.556
					C194.253,153.471,191.491,154.615,188.553,154.615z"/>
				<g>
					<path fill="#5A95E5" d="M188.098,137.117c2.346,0,4.664,0.809,5.404,1.549c2.732,2.733,2.732,7.166,0,9.898
						c-1.366,1.367-3.158,2.05-4.949,2.05c-1.792,0-3.584-0.683-4.951-2.05c-2.734-2.733-2.732-7.167,0-9.898
						C184.739,137.527,186.425,137.117,188.098,137.117 M188.098,129.117c-4.097,0-7.607,1.346-10.154,3.893
						c-2.831,2.832-4.392,6.597-4.392,10.604c-0.001,4.007,1.56,7.774,4.394,10.608c2.835,2.832,6.602,4.393,10.607,4.393
						c4.007,0,7.773-1.561,10.605-4.393c5.848-5.85,5.848-15.365,0.002-21.213C196.289,130.137,191.406,129.117,188.098,129.117
						L188.098,129.117z"/>
				</g>
			</g>
			<g>
				<path fill="#FFFFFF" d="M333.553,154.615c-2.938,0-5.701-1.145-7.777-3.221c-4.29-4.289-4.29-11.269-0.001-15.558
					c1.777-1.779,4.312-2.72,7.323-2.72c2.655,0,6.365,0.852,8.233,2.722c4.287,4.288,4.287,11.267,0,15.556
					C339.253,153.471,336.491,154.615,333.553,154.615z"/>
				<g>
					<path fill="#5A95E5" d="M333.098,137.117c2.347,0,4.664,0.809,5.404,1.549c2.732,2.733,2.732,7.166,0,9.898
						c-1.366,1.367-3.158,2.05-4.949,2.05c-1.792,0-3.584-0.683-4.951-2.05c-2.733-2.733-2.731-7.167,0-9.898
						C329.739,137.527,331.425,137.117,333.098,137.117 M333.098,129.117c-4.097,0-7.606,1.346-10.153,3.893
						c-2.831,2.832-4.393,6.597-4.393,10.604c-0.001,4.007,1.561,7.774,4.395,10.608c2.835,2.832,6.602,4.393,10.606,4.393
						c4.007,0,7.773-1.561,10.605-4.393c5.848-5.85,5.848-15.365,0.002-21.213C341.289,130.137,336.406,129.117,333.098,129.117
						L333.098,129.117z"/>
				</g>
			</g>
		</g>
	</g>
	<g>
		<g>
			<g id="MobileMe_21_">
				<path fill="#5A95E5" d="M468.241,68.688c-0.035-0.537-0.06-1.08-0.06-1.629c0-13.123,7.584-25.559,23.59-25.559
					c13.193,0,17.898,7.602,21.566,15.932c2.06-1.764,4.728-2.824,7.639-2.824c6.525,0,11.816,5.328,11.816,11.904
					c0,0.695-0.061,1.371-0.176,2.031c8.908,1.42,15.717,9.184,15.717,18.557c0,10.377-8.348,18.789-18.646,18.789h-57.705
					c-10.295,0-18.647-8.412-18.647-18.789C453.335,78.014,459.735,70.436,468.241,68.688z"/>
			</g>
			<g enable-background="new    ">
				<path fill="#FFFFFF" d="M490.734,78.981c0-3.794,1.84-5.618,5.073-5.618s5.074,1.824,5.074,5.618
					c0,2.289-0.769,3.905-2.049,4.754c0.513,0.063,1.136,0.368,1.376,0.688c0.177,0.239,0.209,0.384,0.209,0.576
					c0,0.479-0.385,0.912-0.912,0.912c-0.225,0-0.433-0.064-0.641-0.272c-0.752-0.736-1.265-1.04-3.058-1.057
					C492.574,84.583,490.734,82.727,490.734,78.981z M492.654,78.981c0,2.641,1.041,3.938,3.153,3.938s3.153-1.297,3.153-3.938
					c0-2.657-1.041-3.954-3.153-3.954S492.654,76.324,492.654,78.981z"/>
				<path fill="#FFFFFF" d="M503.998,81.559l-0.976,2.32c-0.144,0.336-0.448,0.608-0.864,0.608c-0.496,0-0.912-0.416-0.912-0.912
					c0-0.096,0.016-0.225,0.063-0.336l3.777-9.204c0.097-0.224,0.353-0.576,0.849-0.576s0.752,0.353,0.848,0.576l3.778,9.204
					c0.048,0.111,0.063,0.24,0.063,0.336c0,0.496-0.416,0.912-0.912,0.912c-0.416,0-0.721-0.272-0.864-0.608l-0.977-2.32H503.998z
					 M505.936,76.5l-1.312,3.361h2.625L505.936,76.5z"/>
			</g>
		</g>
		<g>
			<g id="MobileMe_16_">
				<path fill="#5A95E5" d="M468.811,194.682c-0.034-0.539-0.059-1.082-0.059-1.631c0-13.123,7.584-25.559,23.588-25.559
					c13.193,0,17.898,7.602,21.568,15.934c2.059-1.766,4.725-2.826,7.637-2.826c6.527,0,11.818,5.33,11.818,11.904
					c0,0.697-0.062,1.373-0.176,2.031c8.907,1.42,15.717,9.184,15.717,18.557c0,10.377-8.349,18.791-18.646,18.791h-57.705
					c-10.297,0-18.647-8.414-18.647-18.791C453.904,204.006,460.305,196.428,468.811,194.682z"/>
			</g>
			<g enable-background="new    ">
				<path fill="#FFFFFF" d="M489.142,199.527v3.393c0,0.513-0.417,0.929-0.929,0.929s-0.928-0.416-0.928-0.929v-9.043
					c0-0.513,0.416-0.929,0.928-0.929h3.057c1.873,0,3.361,1.04,3.361,3.281c0,2.209-1.456,3.298-3.361,3.298H489.142z
					 M489.142,194.613v3.249h1.984c0.993,0,1.585-0.592,1.585-1.633c0-1.057-0.608-1.616-1.585-1.616H489.142z"/>
				<path fill="#FFFFFF" d="M497.974,199.591v3.329c0,0.513-0.417,0.929-0.929,0.929s-0.928-0.416-0.928-0.929v-9.043
					c0-0.513,0.416-0.929,0.928-0.929h3.057c2.162,0,3.378,1.537,3.378,3.346c0,1.521-0.929,2.993-2.465,3.185l2.369,2.882
					c0.144,0.191,0.192,0.384,0.192,0.56c0,0.513-0.416,0.929-0.929,0.929c-0.272,0-0.561-0.128-0.721-0.336l-2.913-3.922H497.974z
					 M497.974,194.613v3.345h2.161c0.992,0,1.424-0.816,1.424-1.664c0-0.864-0.432-1.681-1.473-1.681H497.974z"/>
				<path fill="#FFFFFF" d="M504.66,198.343c0-3.794,1.841-5.618,5.074-5.618s5.074,1.824,5.074,5.618
					c0,3.745-1.841,5.602-5.074,5.602S504.66,202.088,504.66,198.343z M506.581,198.343c0,2.641,1.04,3.938,3.153,3.938
					s3.153-1.297,3.153-3.938c0-2.657-1.04-3.954-3.153-3.954S506.581,195.686,506.581,198.343z"/>
			</g>
			<g enable-background="new    ">
				<path fill="#FFFFFF" d="M472.909,205.948c3.185,0,5.202,1.44,5.202,5.395c0,3.953-2.018,5.378-5.202,5.378h-2.161
					c-0.512,0-0.928-0.416-0.928-0.929v-8.915c0-0.513,0.416-0.929,0.928-0.929H472.909z M471.677,215.056h1.232
					c2.049,0,3.281-0.928,3.281-3.713s-1.232-3.729-3.281-3.729h-1.232V215.056z"/>
				<path fill="#FFFFFF" d="M479.596,213.199v-6.45c0-0.513,0.416-0.929,0.928-0.929c0.513,0,0.929,0.416,0.929,0.929v6.45
					c0,0.977,0.368,2.113,2.177,2.113s2.178-1.137,2.178-2.113v-6.45c0-0.513,0.416-0.929,0.928-0.929s0.929,0.416,0.929,0.929v6.45
					c0,1.825-0.8,3.745-4.034,3.745C480.396,216.944,479.596,215.024,479.596,213.199z"/>
				<path fill="#FFFFFF" d="M489.084,211.343c0-3.794,1.824-5.618,5.01-5.618c1.937,0,3.201,0.768,3.857,1.729
					c0.128,0.192,0.176,0.352,0.176,0.528c0,0.464-0.385,0.848-0.864,0.848c-0.224,0-0.448-0.096-0.656-0.319
					c-0.656-0.721-1.345-1.121-2.513-1.121c-2.129,0-3.09,1.312-3.09,3.954c0,2.801,0.961,3.938,3.09,3.938
					c1.184,0,1.824-0.272,2.593-1.057c0.256-0.256,0.464-0.353,0.688-0.353c0.48,0,0.863,0.385,0.863,0.865
					c0,0.191-0.063,0.352-0.159,0.479c-0.769,1.024-2.272,1.729-3.985,1.729C490.908,216.944,489.084,215.264,489.084,211.343z"/>
				<path fill="#FFFFFF" d="M504.237,207.581v8.339c0,0.513-0.416,0.929-0.929,0.929c-0.512,0-0.928-0.416-0.928-0.929v-8.339
					h-2.449c-0.448,0-0.816-0.368-0.816-0.816s0.368-0.816,0.816-0.816h6.755c0.448,0,0.816,0.368,0.816,0.816
					s-0.368,0.816-0.816,0.816H504.237z"/>
				<path fill="#FFFFFF" d="M510.652,215.92c0,0.513-0.416,0.929-0.929,0.929s-0.929-0.416-0.929-0.929v-9.171
					c0-0.513,0.416-0.929,0.929-0.929s0.929,0.416,0.929,0.929V215.92z"/>
				<path fill="#FFFFFF" d="M512.155,211.343c0-3.794,1.841-5.618,5.073-5.618c3.234,0,5.074,1.824,5.074,5.618
					c0,3.745-1.84,5.602-5.074,5.602C513.996,216.944,512.155,215.088,512.155,211.343z M514.076,211.343
					c0,2.641,1.04,3.938,3.152,3.938c2.113,0,3.154-1.297,3.154-3.938c0-2.657-1.041-3.954-3.154-3.954
					C515.116,207.389,514.076,208.686,514.076,211.343z"/>
				<path fill="#FFFFFF" d="M531.935,206.732v9.204c0,0.496-0.417,0.912-0.913,0.912c-0.304,0-0.592-0.16-0.752-0.4l-4.722-6.818
					v6.307c0,0.496-0.416,0.912-0.912,0.912c-0.497,0-0.913-0.416-0.913-0.912v-9.204c0-0.496,0.416-0.912,0.913-0.912
					c0.319,0,0.576,0.145,0.735,0.384l4.738,6.867v-6.339c0-0.496,0.416-0.912,0.912-0.912S531.935,206.236,531.935,206.732z"/>
			</g>
		</g>
	</g>
	<g>
		<g>
			<path opacity="0.5" fill="#9BC1EA" enable-background="new    " d="M262,256.334V247h-2v9.334c0,3.938,0,5.666,0,5.666h2
				C262,262,262,260.271,262,256.334z"/>
			<g enable-background="new    ">
				<path fill="#3B4655" d="M234.096,271.563c3.185,0,5.202,1.44,5.202,5.395c0,3.953-2.017,5.378-5.202,5.378h-2.161
					c-0.512,0-0.928-0.416-0.928-0.929v-8.915c0-0.513,0.416-0.929,0.928-0.929H234.096z M232.863,280.671h1.232
					c2.049,0,3.281-0.928,3.281-3.713s-1.232-3.729-3.281-3.729h-1.232V280.671z"/>
				<path fill="#3B4655" d="M242.639,276.094h3.025c0.448,0,0.816,0.368,0.816,0.816s-0.368,0.816-0.816,0.816h-3.025v2.944h4.242
					c0.464,0,0.832,0.368,0.832,0.833c0,0.464-0.368,0.832-0.832,0.832h-5.17c-0.512,0-0.928-0.416-0.928-0.929v-8.915
					c0-0.513,0.416-0.929,0.928-0.929h4.994c0.464,0,0.833,0.368,0.833,0.832c0,0.465-0.368,0.833-0.833,0.833h-4.066V276.094z"/>
				<path fill="#3B4655" d="M251.007,278.143v3.393c0,0.513-0.417,0.929-0.929,0.929s-0.928-0.416-0.928-0.929v-9.043
					c0-0.513,0.416-0.929,0.928-0.929h3.057c1.873,0,3.361,1.04,3.361,3.281c0,2.209-1.457,3.298-3.361,3.298H251.007z
					 M251.007,273.229v3.249h1.984c0.993,0,1.585-0.592,1.585-1.633c0-1.057-0.608-1.616-1.585-1.616H251.007z"/>
				<path fill="#3B4655" d="M263.632,280.607c0.528,0,0.896,0.384,0.896,0.864c0,0.496-0.368,0.864-0.896,0.864h-4.738
					c-0.528,0-0.912-0.384-0.912-0.896v-9.075c0-0.513,0.416-0.929,0.928-0.929s0.929,0.416,0.929,0.929v8.243H263.632z"/>
				<path fill="#3B4655" d="M264.462,276.958c0-3.794,1.84-5.618,5.074-5.618s5.074,1.824,5.074,5.618
					c0,3.745-1.841,5.602-5.074,5.602S264.462,280.703,264.462,276.958z M266.382,276.958c0,2.641,1.041,3.938,3.153,3.938
					s3.153-1.297,3.153-3.938c0-2.657-1.041-3.954-3.153-3.954S266.382,274.301,266.382,276.958z"/>
				<path fill="#3B4655" d="M279.343,275.661l2.417-3.793c0.16-0.257,0.448-0.433,0.785-0.433c0.512,0,0.928,0.416,0.928,0.929
					c0,0.176-0.048,0.368-0.145,0.496l-3.057,4.562v4.113c0,0.513-0.416,0.929-0.929,0.929s-0.929-0.416-0.929-0.929v-4.113
					l-3.057-4.562c-0.096-0.128-0.144-0.32-0.144-0.496c0-0.513,0.416-0.929,0.928-0.929c0.336,0,0.608,0.16,0.784,0.433
					L279.343,275.661z"/>
			</g>
		</g>
		<g>
			<path opacity="0.5" fill="#9BC1EA" enable-background="new    " d="M262,36.334V27h-2v9.334c0,3.938,0,5.666,0,5.666h2
				C262,42,262,40.271,262,36.334z"/>
			<g enable-background="new    ">
				<path fill="#3B4655" d="M245.943,3.485v8.339c0,0.513-0.416,0.929-0.928,0.929s-0.928-0.416-0.928-0.929V3.485h-2.449
					c-0.448,0-0.816-0.368-0.816-0.816s0.368-0.816,0.816-0.816h6.755c0.448,0,0.816,0.368,0.816,0.816s-0.368,0.816-0.816,0.816
					H245.943z"/>
				<path fill="#3B4655" d="M252.358,6.383h3.025c0.448,0,0.816,0.368,0.816,0.816s-0.368,0.816-0.816,0.816h-3.025v2.944h4.242
					c0.464,0,0.832,0.368,0.832,0.833c0,0.464-0.368,0.832-0.832,0.832h-5.17c-0.512,0-0.928-0.416-0.928-0.929V2.781
					c0-0.513,0.416-0.929,0.928-0.929h4.994c0.464,0,0.833,0.368,0.833,0.832c0,0.465-0.368,0.833-0.833,0.833h-4.065V6.383z"/>
				<path fill="#3B4655" d="M262.551,3.293c-1.329,0-1.825,0.625-1.825,1.265c0,2.097,5.842,1.12,5.842,5.122
					c0,1.953-1.377,3.169-4.018,3.169c-1.905,0-3.426-0.944-4.05-1.952c-0.08-0.128-0.128-0.288-0.128-0.448
					c0-0.48,0.384-0.864,0.848-0.864c0.352,0,0.544,0.191,0.704,0.352c0.672,0.673,1.521,1.217,2.625,1.217
					c1.457,0,2.161-0.48,2.161-1.473c0-2.337-5.842-1.265-5.842-5.122c0-1.585,1.136-2.929,3.682-2.929
					c1.601,0,2.993,0.592,3.633,1.504c0.096,0.145,0.16,0.32,0.16,0.513c0,0.464-0.384,0.849-0.864,0.849
					c-0.224,0-0.448-0.129-0.688-0.353C264.296,3.661,263.463,3.293,262.551,3.293z"/>
				<path fill="#3B4655" d="M272.055,3.485v8.339c0,0.513-0.416,0.929-0.928,0.929s-0.928-0.416-0.928-0.929V3.485h-2.449
					c-0.448,0-0.816-0.368-0.816-0.816s0.368-0.816,0.816-0.816h6.755c0.448,0,0.816,0.368,0.816,0.816s-0.368,0.816-0.816,0.816
					H272.055z"/>
			</g>
		</g>
	</g>
</g>
</svg>
